<?xml version="1.0" encoding="iso-8859-1"?>
<!-- Generator: Adobe Illustrator 19.0.0, SVG Export Plug-In . SVG Version: 6.00 Build 0)  -->
<svg xmlns="http://www.w3.org/2000/svg" xmlns:xlink="http://www.w3.org/1999/xlink" version="1.1" id="Capa_1" x="0px" y="0px" viewBox="0 0 512 512" style="enable-background:new 0 0 512 512;" xml:space="preserve" width="512px" height="512px">
<g>
	<g>
		<path d="M392,30V0H0v437c0,41.355,33.645,75,75,75h362c41.355,0,75-33.645,75-75V30H392z M75,482c-24.813,0-45-20.187-45-45V30    h332v407c0,16.869,5.6,32.457,15.036,45H75z M482,437c0,24.813-20.187,45-45,45s-45-20.187-45-45V60h30v372h30V60h30V437z" fill="#1b9aaa"/>
	</g>
</g>
<g>
	<g>
		<rect x="60" y="61" width="272" height="30" fill="#1b9aaa"/>
	</g>
</g>
<g>
	<g>
		<rect x="60" y="121" width="272" height="30" fill="#1b9aaa"/>
	</g>
</g>
<g>
	<g>
		<rect x="211" y="181" width="121" height="30" fill="#1b9aaa"/>
	</g>
</g>
<g>
	<g>
		<rect x="60" y="181" width="121" height="30" fill="#1b9aaa"/>
	</g>
</g>
<g>
	<g>
		<rect x="211" y="241" width="121" height="30" fill="#1b9aaa"/>
	</g>
</g>
<g>
	<g>
		<rect x="211" y="301" width="121" height="30" fill="#1b9aaa"/>
	</g>
</g>
<g>
	<g>
		<rect x="211" y="361" width="121" height="30" fill="#1b9aaa"/>
	</g>
</g>
<g>
	<g>
		<path d="M60,241v150h121V241H60z M151,361H90v-90h61V361z" fill="#1b9aaa"/>
	</g>
</g>
<g>
	<g>
		<rect x="211" y="421" width="121" height="30" fill="#1b9aaa"/>
	</g>
</g>
<g>
	<g>
		<rect x="60" y="421" width="121" height="30" fill="#1b9aaa"/>
	</g>
</g>
<g>
</g>
<g>
</g>
<g>
</g>
<g>
</g>
<g>
</g>
<g>
</g>
<g>
</g>
<g>
</g>
<g>
</g>
<g>
</g>
<g>
</g>
<g>
</g>
<g>
</g>
<g>
</g>
<g>
</g>
</svg>
